<?xml version="1.0" standalone="no"?>
<!DOCTYPE svg PUBLIC "-//W3C//DTD SVG 20010904//EN"
 "http://www.w3.org/TR/2001/REC-SVG-20010904/DTD/svg10.dtd">
<svg version="1.0" xmlns="http://www.w3.org/2000/svg"
 width="308.000000pt" height="512.000000pt" viewBox="0 0 308.000000 512.000000"
 preserveAspectRatio="xMidYMid meet">

<g transform="translate(0.000000,512.000000) scale(0.100000,-0.100000)"
fill="#000000" stroke="none">
<path d="M1030 5108 c0 -7 25 -481 54 -1053 30 -572 51 -1043 48 -1046 -4 -4
-32 -15 -62 -24 -30 -10 -91 -33 -134 -51 -44 -19 -81 -32 -83 -30 -2 1 -23
443 -48 982 -25 538 -48 1007 -51 1042 l-6 62 -134 0 -134 0 6 -42 c9 -82 185
-2161 182 -2163 -111 -74 -262 -220 -348 -336 -460 -621 -397 -1470 149 -2008
408 -402 1009 -541 1556 -360 209 69 425 202 586 360 608 599 608 1579 -1
2178 -48 47 -119 109 -158 136 -57 40 -71 55 -72 77 0 27 205 2051 215 2121
l5 37 -134 0 -134 0 -6 -47 c-3 -27 -33 -491 -67 -1033 -34 -542 -63 -987 -65
-989 -2 -2 -53 15 -113 38 -61 22 -117 41 -126 41 -9 0 -18 6 -21 14 -5 12 94
1809 112 2029 l6 77 -511 0 c-402 0 -511 -3 -511 -12z m712 -2423 c418 -73
771 -377 909 -783 41 -121 59 -234 59 -372 0 -328 -127 -624 -366 -850 -220
-209 -499 -320 -804 -320 -569 0 -1057 410 -1155 969 -19 107 -19 295 0 402
84 479 470 868 947 954 100 18 307 18 410 0z"/>
<path d="M1787 2154 c-77 -18 -111 -37 -172 -95 -60 -57 -107 -148 -133 -261
-13 -57 -16 -120 -16 -283 0 -230 13 -306 71 -425 79 -163 242 -243 447 -219
145 16 248 86 310 210 58 116 71 194 71 434 0 189 -2 219 -23 295 -55 202
-159 315 -320 349 -69 14 -163 13 -235 -5z m176 -274 c54 -42 62 -91 62 -360
0 -264 -7 -313 -50 -356 -33 -33 -87 -33 -120 0 -43 43 -50 92 -50 356 0 213
2 251 18 292 20 53 58 88 92 88 12 0 34 -9 48 -20z"/>
<path d="M856 1977 c-114 -95 -209 -176 -210 -180 0 -4 37 -55 83 -112 l84
-104 60 47 c32 26 83 70 113 98 l54 52 0 -449 0 -449 170 0 170 0 0 635 0 635
-157 -1 -158 -1 -209 -171z"/>
</g>
</svg>
