<?xml version="1.0" standalone="no"?>
<!DOCTYPE svg PUBLIC "-//W3C//DTD SVG 20010904//EN"
 "http://www.w3.org/TR/2001/REC-SVG-20010904/DTD/svg10.dtd">
<svg version="1.0" xmlns="http://www.w3.org/2000/svg"
 width="308.000000pt" height="512.000000pt" viewBox="0 0 308.000000 512.000000"
 preserveAspectRatio="xMidYMid meet">

<g transform="translate(0.000000,512.000000) scale(0.100000,-0.100000)"
fill="#000000" stroke="none">
<path d="M1030 5108 c0 -7 25 -481 54 -1053 30 -572 51 -1043 48 -1046 -4 -4
-32 -15 -62 -24 -30 -10 -91 -33 -134 -51 -44 -19 -81 -32 -83 -30 -2 1 -23
443 -48 982 -25 538 -48 1007 -51 1042 l-6 62 -134 0 -134 0 6 -42 c9 -82 185
-2161 182 -2163 -111 -74 -262 -220 -348 -336 -460 -621 -397 -1470 149 -2008
408 -402 1009 -541 1556 -360 209 69 425 202 586 360 608 599 608 1579 -1
2178 -48 47 -119 109 -158 136 -57 40 -71 55 -72 77 0 27 205 2051 215 2121
l5 37 -134 0 -134 0 -6 -47 c-3 -27 -33 -491 -67 -1033 -34 -542 -63 -987 -65
-989 -2 -2 -53 15 -113 38 -61 22 -117 41 -126 41 -9 0 -18 6 -21 14 -5 12 94
1809 112 2029 l6 77 -511 0 c-402 0 -511 -3 -511 -12z m712 -2423 c418 -73
771 -377 909 -783 41 -121 59 -234 59 -372 0 -328 -127 -624 -366 -850 -220
-209 -499 -320 -804 -320 -569 0 -1057 410 -1155 969 -19 107 -19 295 0 402
84 479 470 868 947 954 100 18 307 18 410 0z"/>
<path d="M1080 2010 l0 -150 290 0 c160 0 290 -2 290 -5 0 -2 -99 -228 -221
-502 -122 -274 -223 -506 -226 -515 -5 -17 8 -18 178 -18 l184 0 238 568 237
567 0 103 0 102 -485 0 -485 0 0 -150z"/>
</g>
</svg>
