<?xml version="1.0" standalone="no"?>
<!DOCTYPE svg PUBLIC "-//W3C//DTD SVG 20010904//EN"
 "http://www.w3.org/TR/2001/REC-SVG-20010904/DTD/svg10.dtd">
<svg version="1.0" xmlns="http://www.w3.org/2000/svg"
 width="308.000000pt" height="512.000000pt" viewBox="0 0 308.000000 512.000000"
 preserveAspectRatio="xMidYMid meet">

<g transform="translate(0.000000,512.000000) scale(0.100000,-0.100000)"
fill="#000000" stroke="none">
<path d="M1030 5108 c0 -7 25 -481 54 -1053 30 -572 51 -1043 48 -1046 -4 -4
-32 -15 -62 -24 -30 -10 -91 -33 -134 -51 -44 -19 -81 -32 -83 -30 -2 1 -23
443 -48 982 -25 538 -48 1007 -51 1042 l-6 62 -134 0 -134 0 6 -42 c9 -82 185
-2161 182 -2163 -111 -74 -262 -220 -348 -336 -460 -621 -397 -1470 149 -2008
408 -402 1009 -541 1556 -360 209 69 425 202 586 360 608 599 608 1579 -1
2178 -48 47 -119 109 -158 136 -57 40 -71 55 -72 77 0 27 205 2051 215 2121
l5 37 -134 0 -134 0 -6 -47 c-3 -27 -33 -491 -67 -1033 -34 -542 -63 -987 -65
-989 -2 -2 -53 15 -113 38 -61 22 -117 41 -126 41 -9 0 -18 6 -21 14 -5 12 94
1809 112 2029 l6 77 -511 0 c-402 0 -511 -3 -511 -12z m712 -2423 c418 -73
771 -377 909 -783 41 -121 59 -234 59 -372 0 -328 -127 -624 -366 -850 -220
-209 -499 -320 -804 -320 -569 0 -1057 410 -1155 969 -19 107 -19 295 0 402
84 479 470 868 947 954 100 18 307 18 410 0z"/>
<path d="M1424 2201 c-216 -35 -327 -144 -327 -323 -1 -105 37 -182 130 -268
36 -33 64 -62 62 -63 -2 -2 -27 -18 -56 -36 -63 -39 -129 -110 -150 -159 -38
-91 -33 -233 11 -320 66 -130 213 -195 441 -195 242 0 386 66 457 211 30 60
33 75 33 152 -1 73 -5 93 -28 138 -34 65 -85 117 -172 175 l-65 44 59 36 c106
66 157 145 168 260 15 162 -80 287 -252 332 -72 18 -240 27 -311 16z m176
-266 c76 -39 66 -136 -20 -197 -21 -16 -41 -28 -44 -28 -4 0 -26 18 -51 41
-49 46 -65 91 -46 137 23 56 101 78 161 47z m30 -602 c126 -107 72 -243 -95
-243 -62 1 -118 31 -139 75 -32 68 -1 141 85 199 52 35 53 35 82 18 16 -9 46
-31 67 -49z"/>
</g>
</svg>
